<?xml version="1.0" encoding="utf-8"?>
<!-- Generator: Adobe Illustrator 15.0.0, SVG Export Plug-In . SVG Version: 6.00 Build 0)  -->
<!DOCTYPE svg PUBLIC "-//W3C//DTD SVG 1.1//EN" "http://www.w3.org/Graphics/SVG/1.1/DTD/svg11.dtd">
<svg version="1.1" id="图层_1" xmlns="http://www.w3.org/2000/svg" xmlns:xlink="http://www.w3.org/1999/xlink" x="0px" y="0px"
	 width="512px" height="512px" viewBox="0 0 512 512" enable-background="new 0 0 512 512" xml:space="preserve">
<polygon fill-rule="evenodd" clip-rule="evenodd" points="404.654,304.893 403.854,299.377 402.846,293.996 402.046,291.232 
	401.268,288.293 400.237,285.488 399.185,282.365 397.972,279.426 396.656,276.398 394.311,271.468 392.229,267.121 
	390.146,263.236 388.339,259.615 386.257,256.314 384.724,253.282 381.497,248.763 377.424,242.745 376.485,241.252 
	376.165,240.617 376.165,240.119 376.853,238.083 377.791,236.274 378.614,232.7 379.072,230.852 379.072,228.947 379.301,227.408 
	379.301,225.869 379.072,224.102 378.797,222.654 378.202,219.72 377.424,216.871 376.715,214.251 375.617,211.711 374.358,209.589 
	373.374,207.592 372.275,205.698 370.56,202.896 369.919,201.9 369.735,201.036 368.936,195.607 368.432,192.038 367.849,187.604 
	366.944,183.034 365.525,177.788 364.725,174.848 364.084,172.359 363.191,169.465 362.196,166.388 361.201,163.538 
	359.919,160.466 357.311,154.54 355.777,151.737 353.913,148.522 352.162,145.759 350.423,142.641 347.952,139.747 345.869,136.943 
	343.329,134.049 340.743,131.423 338.135,128.889 335.047,126.264 333.422,125.313 331.89,124.004 328.548,121.698 324.692,119.204 
	320.757,116.95 316.695,114.914 312.256,113.055 308.092,111.292 303.743,109.754 298.996,108.483 294.659,107.356 290.037,106.367 
	285.666,105.326 280.953,104.828 276.331,104.279 271.732,103.695 257.934,103.695 253.266,103.959 248.872,104.554 
	244.502,105.143 240.063,105.864 235.669,106.682 231.505,107.677 227.34,108.987 223.473,110.298 219.606,111.562 215.716,113.42 
	212.055,114.914 208.806,116.722 205.419,118.758 202.296,120.88 199.218,123.277 196.678,125.496 192.697,129.157 189.402,132.556 
	186.244,135.851 183.338,139.203 180.615,142.641 178.235,145.988 175.912,149.334 174.837,150.827 173.841,152.635 
	171.668,155.804 169.952,158.974 168.419,161.954 167.092,165.123 165.787,168.018 164.7,170.729 163.705,173.624 162.698,176.295 
	161.348,181.135 160.364,185.791 159.815,189.681 159.266,193.033 159.266,199.544 158.328,200.544 157.458,201.9 156.783,203.118 
	156.199,204.435 155.467,207.283 154.667,209.903 154.392,212.254 154.208,213.977 154.208,215.824 152.355,218.455 151.04,221.081 
	150.044,223.609 149.312,225.869 148.74,228.043 148.191,230.079 148.191,235.279 148.511,236.544 148.969,238.854 149.541,240.617 
	148.511,241.389 145.605,243.512 141.761,246.949 139.404,248.98 137.104,250.977 135.514,252.562 134.209,253.963 131.407,256.904 
	128.741,259.844 126.659,262.378 124.165,266.039 121.773,269.34 119.428,273.007 117.437,276.398 115.79,280.016 114.039,283.361 
	112.769,286.662 111.419,290.105 110.413,293.445 109.428,296.891 108.559,299.877 108.067,303.086 107.529,306.072 
	107.071,308.967 106.797,314.617 106.797,322.215 107.071,324.525 107.804,328.463 108.067,330.184 108.559,331.939 
	109.154,333.615 109.703,334.795 110.595,336.967 111.282,337.414 111.694,338.324 112.22,338.547 112.769,338.547 115.08,338.324 
	117.437,337.734 119.428,336.967 121.51,335.658 123.398,334.428 125.125,332.85 126.979,331.18 128.558,329.457 130.045,327.506 
	131.407,325.75 132.677,324.303 133.478,322.627 135.033,319.863 135.514,318.736 135.788,318.055 135.926,317.289 136.292,316.654 
	136.567,316.518 137.104,316.248 137.425,316.248 137.562,316.518 137.825,316.518 138.1,316.654 138.969,320.412 139.907,323.439 
	141.177,326.607 142.447,329.457 143.523,332.305 145.17,334.795 146.383,337.414 147.733,339.816 149.312,341.895 150.502,343.891 
	153.659,347.598 156.428,350.904 159.083,353.477 161.714,355.783 163.979,357.59 167.366,360.531 168.728,361.166 169.185,361.801 
	169.185,362.109 168.865,362.385 168.728,362.385 168.052,362.613 165.513,362.797 163.155,363.111 161.165,363.381 
	159.083,363.832 157.275,364.381 155.467,364.92 153.889,365.736 152.63,366.504 151.04,367 150.044,367.813 148.969,368.449 
	147.824,369.354 146.383,371.113 145.833,371.932 145.17,372.652 144.255,374.506 143.751,376.045 143.157,377.584 143.031,378.939 
	143.031,381.475 142.768,382.738 142.768,384.014 142.447,385.277 142.447,386.404 142.768,387.629 143.031,388.717 
	143.751,390.838 144.255,391.834 144.896,392.83 145.605,393.818 146.383,394.689 147.413,395.678 148.191,396.49 150.502,398.166 
	152.813,399.568 155.467,400.838 158.328,401.971 161.348,403.189 164.7,403.955 168.052,405.043 171.668,405.77 175.283,406.307 
	178.99,406.855 182.834,407.393 190.408,408.166 198.222,408.305 212.055,408.305 215.441,408.166 218.348,407.846 221.139,407.617 
	223.77,407.393 227.981,406.58 231.013,405.77 233.907,405.043 239.239,402.869 241.641,401.971 243.953,400.838 247.751,398.756 
	251.183,397.08 253.723,395.494 255.577,393.818 258.471,394.139 260.725,394.367 265.164,394.689 269.008,394.689 270.358,394.957 
	271.732,395.494 273.905,396.273 276.331,397.08 280.953,398.48 285.666,400.156 290.267,401.467 294.888,402.371 299.625,403.551 
	304.521,404.23 309.167,404.729 313.834,405.363 318.183,405.77 322.85,406.039 335.779,406.039 339.943,405.541 344.017,405.363 
	347.952,404.729 351.567,403.955 355.183,403.189 358.661,402.371 360.103,401.971 361.704,401.467 364.725,400.295 
	367.401,399.076 369.919,397.811 372.275,396.49 374.358,394.957 375.182,394.139 376.165,393.012 377.424,391.52 378.797,389.66 
	379.301,388.717 379.529,387.943 380.101,386.947 380.33,385.861 380.33,384.82 380.605,383.785 380.33,382.246 380.101,380.936 
	379.529,379.398 379.072,378.133 378.202,376.594 377.173,375.188 376.165,373.969 374.815,372.928 372.047,370.576 
	368.936,368.311 365.8,366.504 362.506,364.65 354.954,361.027 353.146,359.947 352.654,359.445 352.334,359.129 355.96,355.553 
	357.54,353.791 358.844,352.168 361.384,348.586 363.775,344.926 365.8,341.67 367.723,338.547 370.285,332.305 372.275,327.105 
	373.603,323.439 374.358,322.215 374.815,321.225 375.617,320.635 375.937,320.635 376.165,320.768 378.111,324.525 
	379.838,328.146 381.063,330.184 382.321,331.939 383.579,334.119 385.181,336.242 386.531,337.734 387.344,338.547 
	388.156,339.273 388.888,339.816 389.598,340.314 391.142,341.08 391.955,341.35 393.213,341.35 394.036,341.08 395.043,340.584 
	396.165,340.086 397.104,339.273 397.972,338.324 398.956,337.15 399.734,336.242 400.604,334.795 401.268,333.615 402.046,331.939 
	402.457,330.539 403.579,327.105 404.311,323.307 404.837,319.104 405.203,316.654 405.203,309.779 "/>
</svg>
