<?xml version="1.0" encoding="utf-8"?>
<!-- Generator: Adobe Illustrator 15.0.0, SVG Export Plug-In . SVG Version: 6.00 Build 0)  -->
<!DOCTYPE svg PUBLIC "-//W3C//DTD SVG 1.1//EN" "http://www.w3.org/Graphics/SVG/1.1/DTD/svg11.dtd">
<svg version="1.1" id="图层_1" xmlns="http://www.w3.org/2000/svg" xmlns:xlink="http://www.w3.org/1999/xlink" x="0px" y="0px"
	 width="512px" height="512px" viewBox="0 0 512 512" enable-background="new 0 0 512 512" xml:space="preserve">
<path stroke="#24211D" stroke-width="0" stroke-linecap="square" stroke-miterlimit="10" d="M174.026,253.361
	c-12.611,31.307-35.491,56.5-65.88,74.832c17.121,16.232,39.933,26.211,65.096,26.211c24.476,0,46.704-9.453,63.64-24.896
	C207.838,312.078,187.975,286.441,174.026,253.361z M359.5,158.789v38.82c0,49.535,22.937,83.066,63.757,102.508
	c6.563-13.365,12.208-28.422,12.208-44.434C435.465,207.522,397.5,167.542,359.5,158.789z M154.5,199.938v-41.312
	c-45,8.335-78.108,48.526-78.108,97.057c0,18.325,4.559,35.415,13,50.112C132.784,282.375,154.5,247.1,154.5,199.938z
	 M321.5,198.774v-41.179c-30,3.061-53.776,19.67-69.265,43.821c-14.836-23.134-37.511-39.415-65.438-43.437
	c-0.355,6.542-1.297,33.945-1.297,36.148v4.646c7,46.915,26.249,80.394,62.634,99.65c-6.276-12.84-10.076-27.432-10.076-42.741
	c0-19.745,5.462-38.329,15.642-53.424c10.171,15.095,15.728,33.679,15.728,53.424c0,17.186-4.333,33.495-12.155,47.391
	c0.473,0.199-0.337,0.391,0.142,0.592C298.892,280.248,314.5,245.312,321.5,198.774z M338.457,251.033
	c-14.236,32.621-36.486,58.643-68.672,78.188c16.986,15.619,39.355,25.184,63.986,25.184c25.563,0,48.715-10.281,65.91-26.965
	C372.033,309.068,351.158,283.662,338.457,251.033z"/>
</svg>
