<?xml version="1.0" encoding="utf-8"?>
<!-- Generator: Adobe Illustrator 15.0.0, SVG Export Plug-In . SVG Version: 6.00 Build 0)  -->
<!DOCTYPE svg PUBLIC "-//W3C//DTD SVG 1.1//EN" "http://www.w3.org/Graphics/SVG/1.1/DTD/svg11.dtd">
<svg version="1.1" id="图层_1" xmlns="http://www.w3.org/2000/svg" xmlns:xlink="http://www.w3.org/1999/xlink" x="0px" y="0px"
	 width="512px" height="512px" viewBox="0 0 512 512" enable-background="new 0 0 512 512" xml:space="preserve">
<g>
	<path fill-rule="evenodd" clip-rule="evenodd" d="M312.513,204.636c3.665,0,7.289,0.265,10.886,0.675
		c-9.78-45.551-58.469-79.377-114.043-79.377c-62.131,0-113.027,42.346-113.027,96.124c0,31.041,16.933,56.532,45.229,76.309
		l-11.305,34.002l39.513-19.815c14.138,2.795,25.482,5.667,39.591,5.667c3.547,0,7.064-0.177,10.552-0.449
		c-2.208-7.554-3.488-15.468-3.488-23.685C216.419,244.705,258.823,204.636,312.513,204.636z M251.74,173.985
		c8.511,0,14.147,5.608,14.147,14.108c0,8.472-5.637,14.148-14.147,14.148c-8.471,0-16.972-5.677-16.972-14.148
		C234.768,179.594,243.269,173.985,251.74,173.985z M172.637,202.242c-8.471,0-17.021-5.677-17.021-14.148
		c0-8.5,8.55-14.108,17.021-14.108c8.471,0,14.109,5.608,14.109,14.108C186.746,196.565,181.108,202.242,172.637,202.242z"/>
	<path fill-rule="evenodd" clip-rule="evenodd" d="M415.672,292.737c0-45.198-45.218-82.033-96.006-82.033
		c-53.778,0-96.134,36.835-96.134,82.033c0,45.258,42.355,82.016,96.134,82.016c11.255,0,22.608-2.834,33.913-5.667l31.003,16.98
		l-8.501-28.256C398.768,340.789,415.672,318.22,415.672,292.737z M288.497,278.59c-5.628,0-11.304-5.6-11.304-11.314
		c0-5.627,5.676-11.295,11.304-11.295c8.549,0,14.146,5.668,14.146,11.295C302.644,272.99,297.046,278.59,288.497,278.59z
		 M350.668,278.59c-5.589,0-11.226-5.6-11.226-11.314c0-5.627,5.637-11.295,11.226-11.295c8.471,0,14.147,5.668,14.147,11.295
		C364.815,272.99,359.139,278.59,350.668,278.59z"/>
</g>
</svg>
