<?xml version="1.0" encoding="utf-8"?>
<!-- Generator: Adobe Illustrator 15.0.0, SVG Export Plug-In . SVG Version: 6.00 Build 0)  -->
<!DOCTYPE svg PUBLIC "-//W3C//DTD SVG 1.1//EN" "http://www.w3.org/Graphics/SVG/1.1/DTD/svg11.dtd">
<svg version="1.1" id="图层_1" xmlns="http://www.w3.org/2000/svg" xmlns:xlink="http://www.w3.org/1999/xlink" x="0px" y="0px"
	 width="512px" height="512px" viewBox="0 0 512 512" enable-background="new 0 0 512 512" xml:space="preserve">
<path d="M364.637,114.137c-21-4.917-42.582-0.6-48.63,0.56c-0.463,0.043-0.905,0.526-1.337,0.612
	c-0.204,0.043-0.335,0.278-0.335,0.278c-5.972,1.687-10.326,7.217-10.326,13.739c0,7.772,6.295,14.17,14.166,14.17
	c0,0,7.631-1.021,12.817-3.048c5.142-2.07,48.607-1.541,70.212,34.724c11.772,26.466,5.175,44.178,4.354,47.024
	c0,0-2.803,6.878-2.803,13.648c0,7.815,6.296,12.567,14.101,12.567c6.533,0,12.011-0.09,13.617-12.09h0.086
	C453.747,159.321,402.196,122.901,364.637,114.137z M371.709,228.164c4.787,0,8.862-3.541,9.541-8.161
	c0.085-0.345,0.129-0.646,0.129-1.035c7.256-65.238-53.46-54.009-53.46-54.009c-5.391,0-9.702,4.36-9.702,9.799
	c0,5.352,4.312,9.712,9.702,9.712c43.617-9.626,33.99,33.98,33.99,33.98C361.909,223.847,366.297,228.164,371.709,228.164z
	 M342.774,252.258c-14.024-2.722-7.201-10.273-7.201-10.273s13.724-22.628-2.717-39.079c-20.384-20.374-69.909,2.593-69.909,2.593
	c-18.92,5.87-13.896-2.68-11.222-17.228c0-17.14-5.876-46.15-56.263-29.015c-50.333,17.227-93.563,77.586-93.563,77.586
	C71.844,276.95,75.833,307.95,75.833,307.95c7.503,68.433,80.216,87.218,136.77,91.664c59.497,4.669,139.81-20.508,164.152-72.232
	C401.106,275.571,356.854,255.067,342.774,252.258z M217.013,380.317c-59.077,2.76-106.823-26.859-106.823-66.277
	c0-39.461,47.746-71.106,106.823-73.829c59.098-2.722,106.939,21.63,106.939,61.012C323.952,340.636,276.11,377.635,217.013,380.317
	z M205.219,266.203c-59.4,6.953-52.543,62.601-52.543,62.601s-0.604,17.621,15.934,26.596c34.755,18.827,70.546,7.429,88.635-15.923
	C275.332,316.115,264.726,259.298,205.219,266.203z M190.233,344.306c-11.082,1.3-20.029-5.093-20.029-14.375
	c0-9.238,7.945-18.915,19.038-20.072c12.742-1.214,21.042,6.127,21.042,15.41C210.284,334.507,201.294,343.051,190.233,344.306z
	 M225.258,314.472c-3.761,2.809-8.376,2.42-10.359-0.948c-2.071-3.284-1.294-8.549,2.501-11.314
	c4.397-3.276,8.979-2.333,10.964,0.954C230.357,306.527,228.936,311.578,225.258,314.472z"/>
</svg>
