<?xml version="1.0" encoding="utf-8"?>
<!-- Generator: Adobe Illustrator 15.0.0, SVG Export Plug-In . SVG Version: 6.00 Build 0)  -->
<!DOCTYPE svg PUBLIC "-//W3C//DTD SVG 1.1//EN" "http://www.w3.org/Graphics/SVG/1.1/DTD/svg11.dtd">
<svg version="1.1" id="图层_1" xmlns="http://www.w3.org/2000/svg" xmlns:xlink="http://www.w3.org/1999/xlink" x="0px" y="0px"
	 width="512px" height="512px" viewBox="0 0 512 512" enable-background="new 0 0 512 512" xml:space="preserve">
<path d="M167.22,242.075c4.642,3.209,10.213,5.111,16.26,5.111c15.757,0,28.388-12.659,28.388-28.427
	c0-15.68-12.631-28.338-28.388-28.338c-15.674,0-28.433,12.659-28.433,28.338c0,4.061,0.852,7.9,2.369,11.364
	c-6.086,6.418-12.803,14.496-19.354,24.288c-18.203,26.955-38.563,74.636-32.775,139.103c0.376,3.973,3.673,8.985,7.557,8.985h0.764
	c4.183,0,7.309-6.153,6.971-10.335c-4.437-47.825,5.66-91.511,29.782-127.595C156.022,256.039,161.848,247.828,167.22,242.075z
	 M182.214,134.608c-47.316,0-85.801,38.485-85.801,85.8c0,13.522,3.209,27.121,9.417,39.116c1.948,3.763,6.468,5.245,10.224,3.254
	c3.851-1.894,5.323-6.496,3.342-10.214c-5.156-10.025-7.735-20.87-7.735-32.156c0-38.861,31.691-70.508,70.553-70.508
	c38.95,0,70.591,31.647,70.591,70.508c0,38.861-31.641,70.509-70.591,70.509c-5.367,0-10.728-0.598-15.89-1.771
	c-4.094-0.975-8.111,1.593-9.118,5.743c-0.852,4.049,1.604,8.154,5.743,9.129c6.252,1.394,12.802,2.102,19.265,2.102
	c47.354,0,85.851-38.485,85.851-85.712C268.064,173.093,229.567,134.608,182.214,134.608z M412.201,230.588
	c-25.518-9.417-44.903-24.919-57.497-46.087c-3.008-4.991-5.199-9.682-6.893-13.909c2.755-1.516,5.124-3.961,6.596-7.004
	c3.75-8.022,0.375-17.616-7.647-21.456c-8.078-3.851-17.66-0.42-21.467,7.602c-3.85,8.067-0.464,17.617,7.701,21.5
	c2.015,0.885,4.14,1.482,6.374,1.527c1.771,4.647,4.227,10.092,7.591,15.846c9.384,15.868,27.841,37.423,62.275,50.137
	c2.158,0.764,4.448-0.211,5.445-2.202c0-0.122,0.088-0.199,0.133-0.421C415.575,233.886,414.479,231.474,412.201,230.588z
	 M341.516,197.636c-6.285,0.266-12.549-1.096-18.324-3.807c-19.984-9.494-28.482-33.373-18.89-53.269
	c9.418-20.017,33.296-28.46,53.226-18.966c19.983,9.383,28.426,33.329,18.932,53.224c-1.261,2.745-2.877,5.422-4.735,7.734
	c-1.482,1.87-1.173,4.615,0.686,6.086c1.859,1.482,4.647,1.14,6.086-0.72c2.269-2.877,4.14-6.041,5.821-9.383
	c11.573-24.167,1.217-53.312-23.017-64.798c-24.255-11.53-53.356-1.185-64.854,23.06c-11.54,24.255-1.185,53.324,23.061,64.854
	c6.938,3.297,14.661,4.902,22.274,4.725c2.435-0.122,4.337-2.103,4.227-4.515C345.964,199.451,343.928,197.592,341.516,197.636z"/>
</svg>
